<?xml version="1.0" encoding="UTF-8" standalone="no"?>
<svg
   version="1.0"
   width="250px"
   height="300px"
   viewBox="0 0 2500 3000"
   preserveAspectRatio="xMidYMid meet"
   id="svg6"
   sodipodi:docname="glua_add.svg"
   inkscape:version="1.3.2 (091e20ef0f, 2023-11-25)"
   xmlns:inkscape="http://www.inkscape.org/namespaces/inkscape"
   xmlns:sodipodi="http://sodipodi.sourceforge.net/DTD/sodipodi-0.dtd"
   xmlns="http://www.w3.org/2000/svg"
   xmlns:svg="http://www.w3.org/2000/svg">
  <defs
     id="defs6">
    <filter
       style="color-interpolation-filters:sRGB;"
       inkscape:label="Drop Shadow"
       id="filter13"
       x="-0.016428853"
       y="-0.016612973"
       width="1.0328577"
       height="1.0332259">
      <feFlood
         result="flood"
         in="SourceGraphic"
         flood-opacity="1.000000"
         flood-color="rgb(255,255,255)"
         id="feFlood12" />
      <feGaussianBlur
         result="blur"
         in="SourceGraphic"
         stdDeviation="7.500000"
         id="feGaussianBlur12" />
      <feOffset
         result="offset"
         in="blur"
         dx="0.000000"
         dy="0.000000"
         id="feOffset12" />
      <feComposite
         result="comp1"
         operator="in"
         in="flood"
         in2="offset"
         id="feComposite12" />
      <feComposite
         result="comp2"
         operator="over"
         in="SourceGraphic"
         in2="comp1"
         id="feComposite13" />
    </filter>
    <filter
       style="color-interpolation-filters:sRGB;"
       inkscape:label="Drop Shadow"
       id="filter15"
       x="-0.032727273"
       y="-0.032503612"
       width="1.0654545"
       height="1.0650072">
      <feFlood
         result="flood"
         in="SourceGraphic"
         flood-opacity="1.000000"
         flood-color="rgb(255,255,255)"
         id="feFlood13" />
      <feGaussianBlur
         result="blur"
         in="SourceGraphic"
         stdDeviation="7.500000"
         id="feGaussianBlur13" />
      <feOffset
         result="offset"
         in="blur"
         dx="0.000000"
         dy="0.000000"
         id="feOffset13" />
      <feComposite
         result="comp1"
         operator="in"
         in="flood"
         in2="offset"
         id="feComposite14" />
      <feComposite
         result="comp2"
         operator="over"
         in="SourceGraphic"
         in2="comp1"
         id="feComposite15" />
    </filter>
  </defs>
  <sodipodi:namedview
     id="namedview6"
     pagecolor="#000000"
     bordercolor="#999999"
     borderopacity="1"
     inkscape:showpageshadow="2"
     inkscape:pageopacity="0"
     inkscape:pagecheckerboard="0"
     inkscape:deskcolor="#d1d1d1"
     inkscape:zoom="2.1566757"
     inkscape:cx="20.633608"
     inkscape:cy="211.20468"
     inkscape:window-width="1920"
     inkscape:window-height="1163"
     inkscape:window-x="0"
     inkscape:window-y="0"
     inkscape:window-maximized="1"
     inkscape:current-layer="svg6" />
  <g
     id="layer1"
     fill="#010000"
     stroke="none"
     inkscape:label="layer1">
    <path
       d="m 1503,2815 c -211,-46 -392,-241 -425,-457 -53,-353 283.2974,-660.0069 636.2974,-607.0069 293,45 491.7026,318.0069 447.7026,607.0069 -33,218 -215,412 -429,457 -83,18 -148,18 -230,0 z m 223,-129 c 186,-49 314,-215 314,-406 0,-165 -82.6441,-316.5456 -235.6441,-388.5456 -76.0849,-39.8745 -79.1752,-40.2351 -180.8893,-38.5157 C 1522.481,1854.6458 1511,1866 1439,1902 c -93,46 -158,112 -202,206 -30,62 -32,75 -32,172 0,97 2,110 32,172 44,93 110,161 197,203 39,18 82,35 96,38 54,9 147,6 196,-7 z"
       id="path1"
       sodipodi:nodetypes="cccccccscsccscccc"
       style="paint-order:stroke fill markers;filter:url(#filter13)" />
    <path
       d="M1567 2554 c-4 -4 -7 -54 -7 -110 l0 -103 -107 -3 -108 -3 0 -55 0 -55 107 -3 107 -3 3 -107 3 -107 55 0 55 0 3 107 3 107 107 3 107 3 0 55 0 55 -107 9 -107 8 -3 102 -3 101 -50 3 c-28 2 -54 0 -58 -4z"
       id="path2"
       style="filter:url(#filter15)" />
  </g>
  <g
     id="layer2"
     fill="#ff921e"
     stroke="none">
    <path
       d="m 1530,2713 c -14,-2 -57,-20 -95,-38 -90,-43 -173,-128 -218,-222 -30,-63 -32,-76 -32,-173 0,-97 2,-110 32,-173 71,-150 216,-254 369,-264 44,-2 104.1433,-0.7022 126.1433,4.2978 l 37.2624,13.4185 L 1744,1943 l -1,87 h 27 c 34,0 54,22 45,50 -5,17 -1,21 25,26 63,13 60,73 -5,100 -19,7 -36,18 -40,24 -9,14 -108,13 -123,-2 -8,-8 -12,-47 -12,-110 v -98 h -40 -40 v 98 c 0,63 -4,102 -12,110 -8,8 -47,12 -110,12 h -98 v 40 40 h 98 c 63,0 102,4 110,12 8,8 12,47 12,110 v 98 h 40 39 l 3,-67 3,-68 33,3 c 68,5 110,64 65,92 -16,9 -14,13 20,43 43,37 46,55 14,85 -19,18 -35,22 -85,22 -61,0 -61,0 -70,33 -7,29 -12,32 -48,33 -21,1 -50,0 -64,-3 z"
       id="path3"
       sodipodi:nodetypes="cccsccccccsccccsscccssscccssscccccccccsccc" />
    <path
       d="M735 2600 c-55 -5 -158 -16 -230 -24 -72 -9 -159 -17 -194 -19 -86 -3 -93 -15 -64 -100 21 -61 22 -66 8 -153 -39 -237 -50 -648 -20 -703 8 -14 24 -66 35 -114 39 -161 89 -259 203 -401 67 -83 114 -177 156 -311 28 -89 31 -112 31 -226 0 -188 38 -290 146 -389 72 -66 140 -92 256 -98 116 -6 202 13 273 60 52 34 115 124 145 206 11 31 24 64 27 72 4 8 8 22 9 30 1 8 7 28 13 43 6 16 11 53 11 84 0 54 2 57 47 96 25 23 64 54 87 70 69 50 136 120 136 143 0 34 -45 64 -96 64 -54 0 -137 17 -158 33 -15 11 -13 21 24 110 23 54 47 131 55 171 8 40 25 106 39 147 33 100 68 273 64 323 l-3 41 -75 -3 c-221 -10 -417 102 -510 292 -73 149 -77 311 -10 455 37 78 37 87 3 95 -49 11 -305 15 -408 6z"
       id="path4" />
  </g>
</svg>
