<?xml version="1.0" encoding="UTF-8" standalone="no"?>
<!-- Created with Inkscape (http://www.inkscape.org/) -->

<svg
   version="1.1"
   id="svg1"
   width="701.71997"
   height="254.26666"
   viewBox="0 0 701.71997 254.26666"
   sodipodi:docname="eduroam.svg"
   inkscape:version="1.3.2 (091e20ef0f, 2023-11-25)"
   xmlns:inkscape="http://www.inkscape.org/namespaces/inkscape"
   xmlns:sodipodi="http://sodipodi.sourceforge.net/DTD/sodipodi-0.dtd"
   xmlns="http://www.w3.org/2000/svg"
   xmlns:svg="http://www.w3.org/2000/svg">
  <sodipodi:namedview
     id="namedview1"
     pagecolor="#000000"
     bordercolor="#999999"
     borderopacity="1"
     inkscape:showpageshadow="2"
     inkscape:pageopacity="0"
     inkscape:pagecheckerboard="0"
     inkscape:deskcolor="#d1d1d1"
     inkscape:zoom="0.8073021"
     inkscape:cx="322.06035"
     inkscape:cy="207.48119"
     inkscape:window-width="1920"
     inkscape:window-height="1163"
     inkscape:window-x="0"
     inkscape:window-y="0"
     inkscape:window-maximized="1"
     inkscape:current-layer="svg1" />
  <defs
     id="defs1">
    <filter
       style="color-interpolation-filters:sRGB;"
       inkscape:label="Drop Shadow"
       id="filter4"
       x="-0.012082525"
       y="-0.033345501"
       width="1.024165"
       height="1.066691">
      <feFlood
         result="flood"
         in="SourceGraphic"
         flood-opacity="0.498039"
         flood-color="rgb(255,255,255)"
         id="feFlood3" />
      <feGaussianBlur
         result="blur"
         in="SourceGraphic"
         stdDeviation="0.300000"
         id="feGaussianBlur3" />
      <feOffset
         result="offset"
         in="blur"
         dx="0.000000"
         dy="0.000000"
         id="feOffset3" />
      <feComposite
         result="comp1"
         operator="in"
         in="flood"
         in2="offset"
         id="feComposite3" />
      <feComposite
         result="fbSourceGraphic"
         operator="over"
         in="SourceGraphic"
         in2="comp1"
         id="feComposite4" />
      <feColorMatrix
         result="fbSourceGraphicAlpha"
         in="fbSourceGraphic"
         values="0 0 0 -1 0 0 0 0 -1 0 0 0 0 -1 0 0 0 0 1 0"
         id="feColorMatrix26" />
      <feFlood
         id="feFlood26"
         result="flood"
         in="fbSourceGraphic"
         flood-opacity="1.000000"
         flood-color="rgb(255,255,255)" />
      <feGaussianBlur
         id="feGaussianBlur26"
         result="blur"
         in="fbSourceGraphic"
         stdDeviation="2.000000" />
      <feOffset
         id="feOffset26"
         result="offset"
         in="blur"
         dx="0.000000"
         dy="0.000000" />
      <feComposite
         id="feComposite26"
         result="comp1"
         operator="in"
         in="flood"
         in2="offset" />
      <feComposite
         id="feComposite27"
         result="comp2"
         operator="over"
         in="fbSourceGraphic"
         in2="comp1" />
    </filter>
  </defs>
  <g
     id="g1"
     style="filter:url(#filter4)"
     transform="matrix(0.64949674,0,0,0.64949674,122.97704,44.561346)">
    <g
       id="group-R5">
      <path
         id="path2"
         d="m 244.04992,151.15024 c -17.5211,0 -35.04228,-3.88746 -48.38934,-11.65852 -20.04162,-11.6598 -25.0513,-28.76876 -15.03452,-43.153549 l 4.73308,-5.232808 28.3814,1.200556 0.39062,0.002 -5.2048,4.100074 c -10.56744,10.275387 -8.80828,24.257527 5.2759,33.300297 8.05158,5.16963 18.6099,7.75631 29.16824,7.75631 10.55832,0 21.11786,-2.58668 29.16384,-7.75631 14.08278,-9.04277 15.8466,-23.02491 5.28256,-33.300297 l -4.97502,-3.913452 13.3532,-0.189354 16.98254,-0.71877 4.29628,4.75107 c 10.01736,14.384833 5.00654,31.493793 -15.02502,43.153593 -13.35624,7.77106 -30.87734,11.65852 -48.39896,11.65852 v 0"
         style="fill:#bed8e7;fill-opacity:1;fill-rule:evenodd;stroke:none;stroke-width:0.0868066" />
      <path
         id="path3"
         d="m 359.41436,90.504663 -1.4568,-2.37681 -2.6275,0.268236 -24.1039,1.720534 3.02252,4.895066 c 9.51918,18.223611 1.58516,38.752111 -23.80194,53.125391 -6.95332,3.93772 -14.73196,7.12002 -23.01068,9.57332 h 43.32784 c 31.03072,-18.40928 40.59836,-44.22974 28.65046,-67.205737"
         style="fill:#bed8e7;fill-opacity:1;fill-rule:evenodd;stroke:none;stroke-width:0.0868066" />
      <path
         id="path4"
         d="m 156.05798,157.72116 h 43.60258 c -8.28066,-2.45466 -16.05404,-5.64636 -23.00878,-9.58408 -27.7005,-15.67932 -34.61966,-38.68414 -20.77188,-58.031744 l 0.69938,-0.858508 -11.97592,-0.850738 -14.9723,-1.520892 -2.22194,3.629466 c -11.9503,22.979056 -2.39138,48.806636 28.64886,67.216496"
         style="fill:#bed8e7;fill-opacity:1;fill-rule:evenodd;stroke:none;stroke-width:0.0868066" />
      <path
         id="path5"
         d="m 364.36302,157.7104 h 31.3553 c 24.06874,-22.5778 29.4815,-49.4621 16.1913,-73.968918 l -1.09758,-1.717947 -22.91512,3.066012 -4.37548,0.442748 2.4897,3.790896 c 12.70892,22.910089 5.47828,48.294129 -21.64812,68.387209"
         style="fill:#bed8e7;fill-opacity:1;fill-rule:evenodd;stroke:none;stroke-width:0.0868066" />
      <path
         id="path6"
         d="m 424.4211,157.7104 h 29.3959 c 20.86128,-25.83306 23.8894,-54.77674 9.0223,-81.508188 l -1.8702,-2.841208 -12.86496,2.668452 -13.2436,2.230955 2.0028,3.021774 c 14.10542,25.168335 9.94004,52.580475 -12.44224,76.428215"
         style="fill:#bed8e7;fill-opacity:1;fill-rule:evenodd;stroke:none;stroke-width:0.0868066" />
      <path
         id="path7"
         d="m 482.30902,157.7104 h 29.71052 c 18.14378,-28.69034 19.25908,-59.808966 3.29106,-88.78876 l -5.10708,-7.833537 -9.63622,2.945391 -15.88174,3.99749 3.6327,5.573084 c 15.1785,27.510372 13.15746,57.163832 -6.00924,84.106332"
         style="fill:#bed8e7;fill-opacity:1;fill-rule:evenodd;stroke:none;stroke-width:0.0868066" />
      <path
         id="path8"
         d="m 539.86742,157.72116 h 27.39244 C 586.54666,120.64968 582.64408,80.818637 555.50328,44.8698 l -0.41206,-0.504353 -11.22882,5.125149 -11.28486,4.174582 8.09378,12.28764 c 16.67128,29.913046 16.3901,61.922242 -0.8039,91.768342"
         style="fill:#bed8e7;fill-opacity:1;fill-rule:evenodd;stroke:none;stroke-width:0.0868066" />
      <path
         id="path9"
         d="m 175.68986,182.80618 c 0,-4.15708 -1.62736,-7.31426 -7.32418,-7.31426 -5.29,0 -7.22246,3.40796 -7.22246,7.31426 z m 20.34544,12.0536 c -3.15378,10.30854 -14.34326,15.04524 -26.6525,15.04524 -7.6296,0 -15.0555,-1.3285 -20.95576,-5.56764 -5.59456,-4.07494 -8.5444,-9.89334 -8.44322,-15.96174 -0.099,-5.73496 2.64522,-11.9696 7.52808,-16.04146 5.2895,-4.4901 13.22446,-6.569 20.65034,-6.569 17.29336,0 27.87306,9.14552 27.87306,23.10932 v 2.24446 h -34.89208 c 0,4.57306 1.83126,7.8963 7.9347,7.8963 4.57772,0 7.12072,-1.4959 7.9344,-5.15302 l 19.02298,0.99754"
         style="fill:#171717;fill-opacity:1;fill-rule:nonzero;stroke:none;stroke-width:0.0868066" />
      <path
         id="path10"
         d="m 232.14728,196.68898 c -1.12024,1.4122 -2.44192,2.15944 -4.4768,2.15944 -6.30668,0 -6.61236,-6.64936 -6.61236,-10.3891 0,-2.32806 0.407,-5.56948 1.01838,-7.89754 0.60952,-2.5757 2.13436,-4.48806 5.6953,-4.48806 1.62854,0 3.45842,0.58122 4.37548,1.66132 1.32168,1.33084 1.21968,3.32634 1.21968,4.98826 v 8.5625 c 0,2.0781 0.20374,3.57398 -1.21968,5.40318 z m 1.21968,-70.32626 v 43.72626 c -3.15326,-2.57696 -7.4257,-4.3238 -12.41016,-4.3238 -15.6656,0 -20.75218,11.38864 -20.75218,22.2784 0,10.47512 5.18802,21.86144 20.1408,21.86144 6.5105,0 10.8848,-1.8279 13.83556,-6.48356 h 0.20314 v 5.65316 h 19.1245 v -82.21954 c -5.90726,4.69648 -14.41616,4.53146 -20.14168,-0.49236"
         style="fill:#171717;fill-opacity:1;fill-rule:nonzero;stroke:none;stroke-width:0.0868066" />
      <path
         id="path11"
         d="m 293.28232,209.07462 v -6.9822 h -0.20374 c -2.13556,5.48634 -9.05358,7.8126 -15.76794,7.8126 -4.27176,0 -8.44288,-0.8304 -11.5956,-3.24216 -3.66346,-2.99222 -4.0698,-6.73168 -4.0698,-10.72166 v -29.34332 h 20.1422 v 25.68458 c 0,2.7428 -0.1026,5.65262 4.47496,5.65262 2.03554,0 3.96792,-0.91406 4.8838,-2.4096 0.91586,-1.41428 1.01718,-2.90884 1.01718,-4.48966 v -24.43794 h 20.14102 v 42.47674 h -19.022"
         style="fill:#171717;fill-opacity:1;fill-rule:nonzero;stroke:none;stroke-width:0.0868066" />
      <path
         id="path12"
         d="m 339.97286,175.32642 c 1.72922,-5.90232 5.49212,-10.05938 13.52866,-9.56124 l 2.74572,0.16658 v 14.88028 c -1.21968,-0.25036 -2.54136,-0.41646 -3.86422,-0.41646 -3.25458,0 -6.61168,0.50016 -8.23838,2.91062 -1.42418,2.07764 -1.42418,4.82038 -1.42418,7.31454 v 18.45372 h -20.1422 V 166.5972 h 17.19144 v 8.72906 h 0.20314"
         style="fill:#2b6691;fill-opacity:1;fill-rule:evenodd;stroke:none;stroke-width:0.0868066" />
      <path
         id="path13"
         d="m 380.76188,187.6284 c 0,11.38686 3.3571,12.21962 7.01936,12.21962 3.66158,0 7.01934,-0.83276 7.01934,-12.21962 0,-4.07286 -0.10275,-11.4716 -7.01934,-11.4716 -6.9175,0 -7.01936,7.39874 -7.01936,11.4716 z m 35.60444,0.58176 c 0,12.8832 -12.71584,21.69486 -28.58508,21.69486 -15.87044,0 -28.5839,-8.81166 -28.5839,-21.69486 0,-13.63284 12.30898,-22.44498 28.5839,-22.44498 16.27624,0 28.58508,8.81214 28.58508,22.44498"
         style="fill:#2b6691;fill-opacity:1;fill-rule:evenodd;stroke:none;stroke-width:0.0868066" />
      <path
         id="path14"
         d="m 454.30896,189.20842 c -4.88314,0.4152 -13.021,1.66138 -13.021,6.81646 0,2.743 2.1362,3.9063 5.29014,3.9063 7.62954,0 7.73086,-5.23796 7.73086,-9.89184 z m 1.72986,19.8662 c -0.51018,-1.91106 -0.71402,-3.9063 -0.71402,-5.90208 -4.06726,4.90458 -9.86572,6.73248 -16.98694,6.73248 -9.6639,0 -18.10678,-4.32204 -18.10678,-12.80032 0,-6.73304 6.40798,-11.22056 13.63118,-13.05108 6.61236,-1.66318 13.63118,-2.32674 20.4467,-2.65958 v -0.33266 c 0,-3.82468 -1.22036,-5.3203 -6.1035,-5.3203 -3.96728,0 -7.32384,1.16356 -7.93402,4.73728 l -18.51552,-1.41248 c 3.05208,-10.55558 15.3616,-13.3007 27.0597,-13.3007 6.1047,0 13.93688,0.66668 19.02132,3.65892 6.8162,3.9063 6.00352,9.3929 6.00352,15.46124 v 14.87902 c 0,3.159 0.1014,6.31672 1.62602,9.31026 h -19.42766"
         style="fill:#2b6691;fill-opacity:1;fill-rule:evenodd;stroke:none;stroke-width:0.0868066" />
      <path
         id="path15"
         d="m 499.98178,166.59788 v 5.7363 h 0.20314 c 2.84824,-4.3241 8.03708,-6.569 14.14056,-6.569 6.40864,0 11.4931,1.99602 14.64836,6.569 3.56094,-4.73902 8.74858,-6.569 15.56288,-6.569 4.3743,0 9.05426,1.08008 12.10754,3.65892 3.76358,3.15904 3.76358,7.31632 3.76358,11.80384 v 27.84668 H 540.6713 v -25.51908 c 0,-2.74334 0.40634,-5.8205 -4.2711,-5.8205 -5.69716,0 -5.49278,4.32388 -5.49278,7.7313 v 23.60828 h -19.73588 v -25.51908 c 0,-2.65964 -0.20314,-6.06968 -4.57744,-6.06968 -4.78128,0 -5.1883,2.90988 -5.1883,6.06968 v 25.51908 h -19.73334 v -42.47674 h 18.3093"
         style="fill:#2b6691;fill-opacity:1;fill-rule:evenodd;stroke:none;stroke-width:0.0868066" />
      <path
         id="path16"
         d="m 253.07274,122.5903 c -5.14862,5.14748 -13.50536,5.14748 -18.65398,0 -5.14742,-5.14742 -5.14742,-13.5047 0,-18.65398 5.14862,-5.14674 13.50536,-5.14674 18.65398,0 5.14796,5.14928 5.14796,13.50656 0,18.65398 v 0"
         style="fill:#171717;fill-opacity:1;fill-rule:evenodd;stroke:none;stroke-width:0.0868066" />
    </g>
  </g>
</svg>
