<?xml version="1.0" encoding="UTF-8" standalone="no"?>
<!-- Uploaded to: SVG Repo, www.svgrepo.com, Generator: SVG Repo Mixer Tools -->

<svg
   height="800px"
   width="800px"
   version="1.1"
   id="Layer_1"
   viewBox="0 0 512 512"
   xml:space="preserve"
   sodipodi:docname="email.svg"
   inkscape:version="1.3.2 (091e20ef0f, 2023-11-25)"
   xmlns:inkscape="http://www.inkscape.org/namespaces/inkscape"
   xmlns:sodipodi="http://sodipodi.sourceforge.net/DTD/sodipodi-0.dtd"
   xmlns="http://www.w3.org/2000/svg"
   xmlns:svg="http://www.w3.org/2000/svg"><defs
   id="defs4" /><sodipodi:namedview
   id="namedview4"
   pagecolor="#ffffff"
   bordercolor="#999999"
   borderopacity="1"
   inkscape:showpageshadow="2"
   inkscape:pageopacity="0"
   inkscape:pagecheckerboard="0"
   inkscape:deskcolor="#d1d1d1"
   inkscape:zoom="0.46"
   inkscape:cx="400"
   inkscape:cy="401.08696"
   inkscape:window-width="1920"
   inkscape:window-height="1163"
   inkscape:window-x="0"
   inkscape:window-y="0"
   inkscape:window-maximized="1"
   inkscape:current-layer="Layer_1" />
<path
   style="fill:#fdbf00;stroke-width:0.88375"
   d="M 443.61356,424.88512 H 68.38632 C 47.08789,424.88512 29.76,407.55859 29.76,386.26021 V 125.74132 c 0,-22.7639 20.143774,-41.736184 34.674178,-27.494734 L 256,285.99398 447.56568,98.247598 C 462.11221,83.991006 482.24,103.00116 482.24,125.74132 v 260.51686 c 0,21.29887 -17.32807,38.62694 -38.62644,38.62694 z"
   id="path1" />
<path
   style="fill:#ff9800;stroke-width:0.88375"
   d="M 447.56568,98.24709 256,285.99398 v 138.89114 h 187.61356 c 21.29837,0 38.62644,-17.32653 38.62644,-38.62491 V 125.74132 c 0,-22.74016 -20.12779,-41.750314 -34.67432,-27.49423 z"
   id="path2" />
<path
   style="fill:#fce277;stroke-width:0.88375"
   d="M 244.41277,320.99451 41.261502,121.8927 C 38.09553,118.78997 36.30682,114.55001 36.293386,110.11812 36.253862,96.153343 54.47318,87.114822 68.38694,87.114822 h 375.22662 c 13.91425,0 32.13518,9.039039 32.09376,23.003298 -0.007,4.43189 -1.80235,8.67389 -4.96718,11.77458 L 267.58723,320.99451 c -6.43674,6.30898 -16.73773,6.30898 -23.17446,0 z"
   id="path3" />
<path
   style="fill:#fddc55;stroke-width:0.88375"
   d="M 443.61356,87.114822 H 256 V 325.72687 c 4.18494,0 8.36988,-1.57661 11.58723,-4.73236 L 470.73811,121.8927 c 3.16636,-3.10273 4.95507,-7.34269 4.96871,-11.77458 0.0384,-13.966762 -18.18001,-23.003298 -32.09326,-23.003298 z"
   id="path4" />
</svg>
