<?xml version="1.0" encoding="UTF-8" standalone="no"?>
<!-- Uploaded to: SVG Repo, www.svgrepo.com, Generator: SVG Repo Mixer Tools -->

<svg
   width="800px"
   height="800px"
   viewBox="0 0 48 48"
   version="1.1"
   id="svg2"
   sodipodi:docname="openvpn.svg"
   inkscape:version="1.3.2 (091e20ef0f, 2023-11-25)"
   xmlns:inkscape="http://www.inkscape.org/namespaces/inkscape"
   xmlns:sodipodi="http://sodipodi.sourceforge.net/DTD/sodipodi-0.dtd"
   xmlns="http://www.w3.org/2000/svg"
   xmlns:svg="http://www.w3.org/2000/svg">
  <defs
     id="defs2" />
  <sodipodi:namedview
     id="namedview2"
     pagecolor="#ffffff"
     bordercolor="#999999"
     borderopacity="1"
     inkscape:showpageshadow="2"
     inkscape:pageopacity="0"
     inkscape:pagecheckerboard="0"
     inkscape:deskcolor="#d1d1d1"
     inkscape:zoom="0.46"
     inkscape:cx="182.6087"
     inkscape:cy="559.78261"
     inkscape:window-width="1920"
     inkscape:window-height="1163"
     inkscape:window-x="0"
     inkscape:window-y="0"
     inkscape:window-maximized="1"
     inkscape:current-layer="svg2" />
  <g
     id="surface1"
     transform="matrix(0.823,0,0,0.823,4.248,4.248)">
    <path
       style="fill:#ff9100"
       d="M 24,4 C 12.953125,4 4,12.953125 4,24 c 0,7.394531 4.023438,13.832031 9.988281,17.296875 l 4.503907,-7.785156 C 15.210938,31.609375 13,28.066406 13,24 c 0,-6.074219 4.925781,-11 11,-11 6.074219,0 11,4.925781 11,11 0,4.066406 -2.210937,7.609375 -5.492187,9.511719 l 4.503906,7.785156 C 39.976563,37.832031 44,31.394531 44,24 44,12.953125 35.046875,4 24,4 Z"
       id="path1" />
    <path
       style="fill:#1a237e"
       d="m 30,24 c 0,-3.3125 -2.6875,-6 -6,-6 -3.3125,0 -6,2.6875 -6,6 0,2.554688 1.601563,4.734375 3.851563,5.597656 L 19.292969,43.417969 C 20.804688,43.785156 22.375,44 24,44 c 1.625,0 3.195313,-0.214844 4.707031,-0.578125 L 26.148438,29.597656 C 28.398438,28.734375 30,26.554688 30,24 Z"
       id="path2" />
  </g>
</svg>
