<?xml version="1.0" encoding="UTF-8" standalone="no"?>
<svg
   id="Layer_1"
   data-name="Layer 1"
   viewBox="0 0 254.05501 278"
   version="1.1"
   sodipodi:docname="ubuntu.svg"
   width="254.05499"
   height="278"
   inkscape:version="1.3.2 (091e20ef0f, 2023-11-25)"
   xmlns:inkscape="http://www.inkscape.org/namespaces/inkscape"
   xmlns:sodipodi="http://sodipodi.sourceforge.net/DTD/sodipodi-0.dtd"
   xmlns="http://www.w3.org/2000/svg"
   xmlns:svg="http://www.w3.org/2000/svg">
  <sodipodi:namedview
     id="namedview19"
     pagecolor="#ffffff"
     bordercolor="#999999"
     borderopacity="1"
     inkscape:showpageshadow="2"
     inkscape:pageopacity="0"
     inkscape:pagecheckerboard="0"
     inkscape:deskcolor="#d1d1d1"
     inkscape:zoom="1"
     inkscape:cx="-2"
     inkscape:cy="235.5"
     inkscape:window-width="1920"
     inkscape:window-height="1163"
     inkscape:window-x="0"
     inkscape:window-y="0"
     inkscape:window-maximized="1"
     inkscape:current-layer="g19" />
  <defs
     id="defs1">
    <style
       id="style1">
      .cls-1 {
        fill: none;
      }

      .cls-2 {
        fill: #e95420;
      }

      .cls-3 {
        fill: #fff;
      }
    </style>
    <clipPath
       clipPathUnits="userSpaceOnUse"
       id="clipPath19">
      <rect
         style="fill:#ff53ba;stroke-width:1.00749"
         id="rect20"
         width="253.99509"
         height="278.04211"
         x="0.059082031"
         y="121.95459" />
    </clipPath>
  </defs>
  <g
     id="g19"
     transform="translate(0,-122)"
     clip-path="url(#clipPath19)">
    <circle
       class="cls-3"
       cx="51.647171"
       cy="255.42561"
       r="28.857153"
       id="circle16"
       style="fill:#e95420;fill-opacity:1;stroke-width:1.0972" />
    <circle
       class="cls-3"
       cx="171.83777"
       cy="192.14833"
       r="28.857153"
       id="circle17"
       style="fill:#e95420;fill-opacity:1;stroke-width:1.0972" />
    <path
       class="cls-3"
       d="m 116.73482,329.70805 c -20.79248,-4.45474 -38.161633,-17.73122 -47.926983,-36.55973 -7.691588,3.50023 -16.34873,4.56455 -24.676712,3.02838 11.81717,29.02175 36.877909,50.09952 67.644225,56.69389 6.74796,1.44834 13.62762,2.15062 20.49629,2.10666 -5.29962,-6.9674 -8.25116,-15.37215 -8.44871,-24.12804 -2.38096,-0.2634 -4.75102,-0.64742 -7.07712,-1.15215 z"
       id="path17"
       style="fill:#e95420;fill-opacity:1;stroke-width:1.0972" />
    <circle
       class="cls-3"
       cx="165.34222"
       cy="329.86182"
       r="28.857153"
       id="circle18"
       style="fill:#e95420;fill-opacity:1;stroke-width:1.0972" />
    <path
       class="cls-3"
       d="m 205.50082,319.2624 c 8.97533,-11.31242 15.29531,-24.68763 18.33468,-38.89673 5.31061,-24.78645 0.35114,-50.79081 -13.60564,-71.87957 -3.32466,7.83417 -8.96443,14.45052 -16.22802,19.00399 7.7903,14.68095 10.16036,31.62215 6.67112,47.91602 -1.71165,7.97686 -4.72904,15.49295 -8.97533,22.36162 6.79183,5.57392 11.58672,13.06794 13.81409,21.50566 z"
       id="path18"
       style="fill:#e95420;fill-opacity:1;stroke-width:1.0972" />
    <path
       class="cls-3"
       d="m 49.419775,214.03804 c 0.735149,-0.0436 1.470291,-0.0545 2.194461,-0.0545 2.918633,0 5.826294,0.30727 8.712011,0.9327 4.707114,1.00943 9.128956,2.78697 13.177732,5.31055 12.991208,-18.68588 33.959321,-29.89957 56.671901,-30.31647 0.12071,-2.1835 0.41699,-4.35601 0.86686,-6.49564 1.32763,-6.17738 4.02685,-11.95981 7.88912,-16.90832 -36.29642,-2.8747 -71.5614,15.85499 -89.523059,47.54299 z"
       id="path19"
       style="fill:#e95420;fill-opacity:1;stroke-width:1.0972" />
  </g>
</svg>
